<svg width="1200" height="630" viewBox="0 0 1200 630" fill="none" xmlns="http://www.w3.org/2000/svg">
<g clip-path="url(#clip0_386_503)">
<rect width="1200" height="630" fill="url(#paint0_linear_386_503)"/>
<path d="M390.642 205.698C377.924 194.697 362.229 187.714 345.542 185.633C328.855 183.552 311.926 186.466 296.895 194.007C281.864 201.548 269.407 213.377 261.1 227.997C252.792 242.618 249.007 259.374 250.223 276.146C251.438 292.918 257.6 308.953 267.93 322.223C278.259 335.493 292.291 345.402 308.252 350.696C324.213 355.991 341.386 356.433 357.598 351.967C373.811 347.502 388.335 338.329 399.333 325.608C414.08 308.554 421.448 286.34 419.818 263.853C418.188 241.367 407.693 220.448 390.642 205.698ZM378.696 229.219C379.468 229.707 380.198 230.258 380.879 230.867L383.351 233.009C383.807 233.402 384.234 233.829 384.628 234.285L385.905 235.727C386.849 236.747 387.716 237.834 388.5 238.981C392.458 244.532 395.26 250.821 396.738 257.477C398.572 265.395 398.656 273.619 396.985 281.574C395.619 287.694 393.356 293.58 390.271 299.039C387.042 304.531 383 309.503 378.284 313.786L374.618 316.875C373.341 317.823 371.982 318.688 370.499 319.594C369.177 320.488 367.801 321.299 366.38 322.024L364.279 323.178L362.096 324.125L359.871 325.073L358.759 325.526L357.606 325.896L353.033 327.297L348.873 328.45C348.098 328.61 347.314 328.72 346.525 328.78L344.177 329.027C343.395 329.027 342.612 329.027 341.829 329.233H339.481C337.918 329.332 336.349 329.332 334.785 329.233C333.22 329.233 331.696 329.027 330.172 328.78L325.6 327.956C319.712 326.59 314.052 324.384 308.793 321.406C307.516 320.624 306.322 319.8 305.086 319.017C304.468 318.605 303.85 318.235 303.274 317.782L299.896 315.063C299.33 314.632 298.793 314.164 298.289 313.662L295.324 310.655C284.959 299.608 279.34 284.937 279.671 269.793C279.812 262.378 281.481 255.073 284.572 248.332L285.479 246.272L286.55 244.419C287.25 243.224 287.868 242.112 288.527 241.123L290.38 238.652C290.922 237.912 291.514 237.21 292.152 236.551C294.459 234.203 295.859 233.091 296.271 233.379C296.683 233.668 295.777 235.315 294.129 238.075C293.346 239.476 292.522 241.288 291.451 243.307L290.051 246.725C289.804 247.343 289.515 247.92 289.31 248.579L288.692 250.597C286.648 257.09 285.837 263.908 286.302 270.699C286.579 274.747 287.297 278.753 288.444 282.645L289.515 285.652L290.051 287.176L290.751 288.659L292.152 291.666L293.882 294.549L294.747 296.032L295.777 297.433C296.477 298.339 297.136 299.328 297.836 300.234C299.358 302.041 300.995 303.747 302.738 305.342L304.056 306.536C304.491 306.957 304.96 307.343 305.457 307.69L308.381 309.873C308.862 310.243 309.371 310.574 309.905 310.861L313.036 312.756C313.572 313.045 314.148 313.292 314.684 313.58C319.167 315.83 323.977 317.359 328.936 318.111L330.831 318.399H342.282L346.072 317.905L347.926 317.452C349.181 317.202 350.42 316.872 351.633 316.463C352.828 316.052 354.063 315.681 355.258 315.228L358.759 313.662C363.265 311.359 367.425 308.433 371.117 304.971C374.674 301.436 377.749 297.447 380.261 293.108C382.549 288.808 384.253 284.223 385.328 279.473C386.589 273.587 386.895 267.537 386.234 261.555C385.581 255.88 384.11 250.331 381.868 245.078C380.92 242.606 379.685 240.464 378.655 238.446C378.161 237.457 377.502 236.592 377.048 235.727C376.595 234.862 376.101 234.038 375.648 233.338C373.753 230.578 372.847 228.56 373.341 227.942C373.835 227.324 375.854 227.612 378.696 229.342V229.219ZM317.938 296.65C318.885 297.103 320.039 297.556 321.357 298.174C322.882 298.76 324.435 299.269 326.012 299.698C332.529 301.497 339.429 301.354 345.866 299.286L347.72 298.586L348.667 298.215L351.386 296.856L353.157 295.785L354.022 295.25L354.846 294.632L356.535 293.355C357.614 292.403 358.632 291.385 359.583 290.307C361.572 288.119 363.224 285.648 364.485 282.974C365.809 280.26 366.699 277.355 367.121 274.365C367.348 272.851 367.472 271.324 367.492 269.793V267.486C367.435 266.727 367.339 265.97 367.204 265.221C366.736 262.186 365.805 259.24 364.444 256.488C363.05 253.787 361.29 251.292 359.212 249.073C357.082 246.96 354.687 245.132 352.086 243.636C349.484 242.275 346.714 241.264 343.848 240.629C340.333 239.864 336.725 239.614 333.138 239.888C329.652 240.167 326.218 240.901 322.922 242.071C321.357 242.565 319.998 243.224 318.803 243.76C317.608 244.295 316.414 244.913 315.384 245.325C313.489 246.314 312.006 246.725 311.265 246.19C310.523 245.654 310.853 244.336 311.8 242.277C312.878 240.344 314.27 238.603 315.92 237.128C316.573 236.458 317.275 235.839 318.02 235.274C321.661 232.415 325.876 230.378 330.378 229.301C335.693 227.963 341.243 227.85 346.608 228.972C355.002 230.751 362.609 235.168 368.316 241.576L370.375 244.048C370.993 244.913 371.611 245.819 372.229 246.725C372.817 247.628 373.354 248.563 373.835 249.526L374.577 250.968L375.813 253.934L376.101 254.675L376.348 255.458L377.296 258.548L377.955 261.678C378.161 262.708 378.202 263.779 378.325 264.85C378.689 268.987 378.411 273.155 377.502 277.207C376.558 281.154 375.046 284.942 373.012 288.453L371.405 290.924C370.87 291.748 370.87 291.748 370.581 292.119L369.675 293.231C369.057 293.973 368.48 294.714 367.821 295.414L365.803 297.392C363.143 299.837 360.147 301.89 356.906 303.488C351.219 306.348 344.892 307.696 338.534 307.401C333.546 307.282 328.642 306.087 324.158 303.9L322.84 303.241L321.645 302.499C320.904 302.005 320.162 301.593 319.544 301.099C318.505 300.294 317.515 299.427 316.579 298.504C315.137 296.897 314.519 295.909 314.807 295.579C315.096 295.25 315.92 295.744 317.938 296.65ZM326.176 256.612C328.36 254.083 331.245 252.259 334.465 251.37C337.686 250.481 341.098 250.568 344.269 251.618C347.441 252.669 350.229 254.637 352.282 257.272C354.335 259.908 355.56 263.094 355.803 266.426C356.045 269.758 355.293 273.087 353.643 275.992C351.992 278.897 349.518 281.248 346.531 282.746C343.545 284.244 340.181 284.823 336.866 284.409C333.551 283.995 330.433 282.607 327.906 280.42C324.522 277.504 322.431 273.366 322.092 268.911C321.752 264.456 323.191 260.049 326.094 256.653L326.176 256.612ZM352.745 346.822C342.321 349.085 331.533 349.085 321.11 346.822C317.132 345.953 313.222 344.796 309.411 343.362C305.563 341.872 301.831 340.095 298.248 338.048C291.017 333.94 284.471 328.728 278.847 322.601C267.509 310.034 260.531 294.142 258.951 277.29C258.166 269.136 258.652 260.909 260.393 252.904C261.256 248.992 262.412 245.15 263.853 241.412C265.287 237.753 266.98 234.202 268.919 230.784C276.322 218.004 287.19 207.579 300.267 200.714C306.151 197.649 312.41 195.364 318.885 193.917C324.735 192.586 330.723 191.963 336.721 192.064C346.583 192.212 356.316 194.327 365.35 198.284C371.168 200.811 376.582 204.184 381.415 208.293L383.557 210.271L384.998 211.836C385.74 212.701 386.069 213.236 385.946 213.401C385.822 213.566 385.204 213.401 384.216 212.742L382.403 211.63L379.891 210.147C377.996 209.035 375.771 207.758 372.888 206.357C369.704 204.794 366.43 203.418 363.084 202.238C348.899 197.547 333.617 197.317 319.297 201.579C316.491 202.442 313.74 203.474 311.059 204.668C309.658 205.245 308.34 205.987 306.94 206.604L304.921 207.717L302.903 208.87C300.258 210.526 297.726 212.357 295.324 214.349C292.738 216.397 290.288 218.612 287.991 220.98C283.403 225.895 279.546 231.444 276.54 237.457C270.202 250.119 267.921 264.426 270.007 278.431C272.093 292.435 278.445 305.457 288.197 315.722C290.633 318.228 293.234 320.567 295.983 322.725C298.734 324.813 301.624 326.712 304.633 328.409C307.626 329.99 310.722 331.366 313.901 332.528C317.033 333.68 320.239 334.616 323.499 335.329C331.619 337.065 339.971 337.441 348.214 336.442C356.09 335.472 363.772 333.305 370.993 330.016C376.48 327.493 381.732 324.488 386.687 321.036L389.2 319.306C389.983 318.811 390.601 318.358 391.177 318.029C391.754 317.699 393.072 317.123 393.36 317.411C393.649 317.699 393.566 318.358 393.113 319.47C392.818 320.133 392.488 320.779 392.125 321.406C391.672 322.107 391.136 322.931 390.477 323.796C386.731 328.614 382.223 332.788 377.131 336.153C369.734 341.245 361.427 344.867 352.663 346.822H352.745Z" fill="#F1E9E5"/>
<path d="M523.299 248.357H494.754V306.842H481.802V248.357H453.207V235.405H523.299V248.357Z" fill="#F1E9E5"/>
<path d="M607.738 306.842H589.356L560.213 277.649H551.097V264.597H560.213L589.356 235.405H607.738L571.023 271.123L607.738 306.842ZM545.916 306.842H532.964V235.405H545.916V306.842Z" fill="#F1E9E5"/>
<path d="M687.146 276.952C687.146 281.303 686.382 285.305 684.854 288.958C683.36 292.611 681.284 295.766 678.627 298.423C675.97 301.047 672.815 303.106 669.162 304.6C665.509 306.095 661.54 306.842 657.256 306.842H622.285C621.355 306.842 620.491 306.676 619.694 306.344C618.897 306.012 618.2 305.563 617.602 304.999C617.037 304.401 616.589 303.703 616.257 302.906C615.925 302.109 615.759 301.246 615.759 300.316V241.931C615.759 241.034 615.925 240.187 616.257 239.39C616.589 238.593 617.037 237.896 617.602 237.298C618.2 236.7 618.897 236.235 619.694 235.903C620.491 235.571 621.355 235.405 622.285 235.405H657.256C661.54 235.405 665.509 236.152 669.162 237.647C672.815 239.141 675.97 241.217 678.627 243.874C681.284 246.497 683.36 249.652 684.854 253.339C686.382 256.992 687.146 260.977 687.146 265.295V276.952ZM674.193 265.295C674.193 262.771 673.778 260.463 672.948 258.37C672.151 256.278 671.005 254.501 669.511 253.04C668.016 251.546 666.223 250.4 664.131 249.603C662.071 248.772 659.78 248.357 657.256 248.357H628.711V293.89H657.256C659.78 293.89 662.071 293.491 664.131 292.694C666.223 291.864 668.016 290.718 669.511 289.257C671.005 287.762 672.151 285.985 672.948 283.926C673.778 281.834 674.193 279.509 674.193 276.952V265.295Z" fill="#F1E9E5"/>
<path d="M758.931 277.649H717.982V264.597H758.931V277.649ZM764.71 248.357H712.801V306.842H699.849V241.931C699.849 241.034 700.015 240.187 700.347 239.39C700.679 238.593 701.128 237.896 701.692 237.298C702.29 236.7 702.987 236.235 703.785 235.903C704.582 235.571 705.445 235.405 706.375 235.405H764.71V248.357Z" fill="#F1E9E5"/>
<path d="M825.636 289.008C825.636 290.801 825.32 292.744 824.689 294.836C824.058 296.895 823.029 298.821 821.601 300.615C820.206 302.375 818.363 303.853 816.071 305.049C813.813 306.244 811.056 306.842 807.801 306.842H784.437C782.644 306.842 780.701 306.526 778.609 305.895C776.55 305.264 774.624 304.251 772.83 302.857C771.07 301.429 769.592 299.585 768.397 297.327C767.201 295.035 766.603 292.262 766.603 289.008C766.603 287.214 766.919 285.271 767.55 283.179C768.181 281.087 769.194 279.161 770.588 277.4C772.017 275.607 773.86 274.112 776.118 272.917C778.41 271.721 781.183 271.123 784.437 271.123H807.801V283.478H784.437C782.677 283.478 781.316 284.026 780.353 285.122C779.389 286.185 778.908 287.513 778.908 289.107C778.908 290.801 779.456 292.129 780.552 293.093C781.681 294.022 783.009 294.487 784.537 294.487H807.801C809.562 294.487 810.923 293.956 811.886 292.893C812.85 291.831 813.331 290.502 813.331 288.908V270.825C813.331 269.131 812.8 267.786 811.737 266.789C810.707 265.793 809.396 265.295 807.801 265.295H779.356V252.99H807.801C809.595 252.99 811.521 253.306 813.58 253.937C815.672 254.568 817.599 255.597 819.359 257.025C821.152 258.42 822.647 260.263 823.842 262.555C825.038 264.813 825.636 267.57 825.636 270.825V289.008Z" fill="#F1E9E5"/>
<path d="M888.753 288.659C888.753 290.884 888.471 292.893 887.906 294.687C887.342 296.447 886.595 298.008 885.665 299.369C884.735 300.698 883.655 301.844 882.427 302.807C881.198 303.737 879.903 304.501 878.541 305.098C877.213 305.696 875.851 306.144 874.456 306.443C873.094 306.709 871.799 306.842 870.57 306.842H835.499V293.89H870.471C872.231 293.89 873.559 293.441 874.456 292.545C875.353 291.648 875.801 290.353 875.801 288.659C875.635 285.205 873.891 283.478 870.57 283.478H850.494C847.638 283.478 845.214 282.98 843.221 281.983C841.228 280.987 839.601 279.742 838.339 278.247C837.11 276.753 836.213 275.142 835.649 273.415C835.118 271.688 834.852 270.077 834.852 268.583C834.852 265.693 835.367 263.269 836.396 261.31C837.426 259.317 838.721 257.706 840.282 256.477C841.843 255.249 843.537 254.368 845.363 253.837C847.19 253.272 848.9 252.99 850.494 252.99H882.327V265.943H850.594C849.93 265.943 849.398 266.026 849 266.192C848.634 266.324 848.352 266.524 848.153 266.789C847.987 267.022 847.887 267.288 847.854 267.586C847.821 267.852 847.804 268.118 847.804 268.384C847.837 268.915 847.937 269.33 848.103 269.629C848.269 269.928 848.468 270.144 848.701 270.277C848.967 270.409 849.249 270.492 849.548 270.526C849.88 270.526 850.195 270.526 850.494 270.526H870.57C873.891 270.526 876.714 271.123 879.039 272.319C881.364 273.515 883.24 275.026 884.668 276.852C886.096 278.646 887.126 280.605 887.757 282.731C888.421 284.856 888.753 286.832 888.753 288.659Z" fill="#F1E9E5"/>
<path d="M945.943 265.943H923.326V306.842H910.224V265.943H893.386V252.99H910.224V235.405H923.326V252.99H945.943V265.943Z" fill="#F1E9E5"/>
<path d="M357.384 467.432C354.248 467.432 351.512 466.728 349.176 465.32C346.872 463.88 345.08 461.864 343.8 459.272C342.552 456.68 341.928 453.608 341.928 450.056C341.928 447.368 342.28 444.968 342.984 442.856C343.72 440.712 344.76 438.904 346.104 437.432C347.448 435.928 349.064 434.776 350.952 433.976C352.872 433.144 355.016 432.728 357.384 432.728C360.584 432.728 363.336 433.432 365.64 434.84C367.976 436.248 369.768 438.248 371.016 440.84C372.296 443.4 372.936 446.456 372.936 450.008C372.936 452.696 372.568 455.112 371.832 457.256C371.096 459.4 370.056 461.224 368.712 462.728C367.368 464.232 365.736 465.4 363.816 466.232C361.928 467.032 359.784 467.432 357.384 467.432ZM357.384 463.928C359.816 463.928 361.864 463.384 363.528 462.296C365.224 461.208 366.52 459.624 367.416 457.544C368.312 455.464 368.76 452.968 368.76 450.056C368.76 445.672 367.768 442.28 365.784 439.88C363.832 437.448 361.032 436.232 357.384 436.232C355.016 436.232 352.984 436.776 351.288 437.864C349.624 438.952 348.344 440.536 347.448 442.616C346.552 444.664 346.104 447.144 346.104 450.056C346.104 454.408 347.096 457.816 349.08 460.28C351.064 462.712 353.832 463.928 357.384 463.928ZM381.413 467.336C380.773 467.336 380.277 467.16 379.925 466.808C379.605 466.456 379.445 465.96 379.445 465.32V445.304C379.445 444.664 379.605 444.184 379.925 443.864C380.245 443.512 380.709 443.336 381.317 443.336C381.925 443.336 382.389 443.512 382.709 443.864C383.061 444.184 383.237 444.664 383.237 445.304V449.192H382.757C383.269 447.304 384.245 445.848 385.685 444.824C387.125 443.8 388.901 443.256 391.013 443.192C391.493 443.16 391.877 443.272 392.165 443.528C392.453 443.752 392.613 444.152 392.645 444.728C392.677 445.272 392.549 445.704 392.261 446.024C391.973 446.344 391.525 446.536 390.917 446.6L390.149 446.696C387.973 446.888 386.293 447.592 385.109 448.808C383.957 449.992 383.381 451.624 383.381 453.704V465.32C383.381 465.96 383.205 466.456 382.853 466.808C382.533 467.16 382.053 467.336 381.413 467.336ZM406.687 476.072C404.991 476.072 403.327 475.864 401.695 475.448C400.095 475.064 398.639 474.44 397.327 473.576C396.943 473.352 396.687 473.08 396.559 472.76C396.463 472.44 396.447 472.12 396.511 471.8C396.575 471.512 396.719 471.24 396.943 470.984C397.167 470.76 397.423 470.616 397.711 470.552C398.031 470.488 398.351 470.536 398.671 470.696C400.079 471.56 401.423 472.152 402.703 472.472C403.983 472.792 405.247 472.952 406.495 472.952C408.767 472.952 410.479 472.344 411.631 471.128C412.815 469.912 413.407 468.152 413.407 465.848V460.424H413.887C413.407 462.28 412.383 463.752 410.815 464.84C409.279 465.928 407.471 466.472 405.391 466.472C403.247 466.472 401.391 465.992 399.823 465.032C398.255 464.04 397.039 462.664 396.175 460.904C395.343 459.144 394.927 457.112 394.927 454.808C394.927 453.08 395.167 451.512 395.647 450.104C396.127 448.664 396.815 447.448 397.711 446.456C398.639 445.432 399.743 444.648 401.023 444.104C402.335 443.528 403.791 443.24 405.391 443.24C407.503 443.24 409.327 443.784 410.863 444.872C412.399 445.928 413.391 447.368 413.839 449.192L413.359 449.768V445.304C413.359 444.664 413.519 444.184 413.839 443.864C414.191 443.512 414.671 443.336 415.279 443.336C415.919 443.336 416.399 443.512 416.719 443.864C417.039 444.184 417.199 444.664 417.199 445.304V465.32C417.199 468.872 416.303 471.544 414.511 473.336C412.751 475.16 410.143 476.072 406.687 476.072ZM406.111 463.304C407.615 463.304 408.911 462.968 409.999 462.296C411.087 461.592 411.919 460.6 412.495 459.32C413.103 458.04 413.407 456.536 413.407 454.808C413.407 452.216 412.751 450.168 411.439 448.664C410.127 447.128 408.351 446.36 406.111 446.36C404.639 446.36 403.359 446.712 402.271 447.416C401.183 448.088 400.335 449.064 399.727 450.344C399.151 451.592 398.863 453.08 398.863 454.808C398.863 457.4 399.519 459.464 400.831 461C402.143 462.536 403.903 463.304 406.111 463.304ZM431.836 467.432C430.236 467.432 428.796 467.128 427.516 466.52C426.268 465.88 425.276 465.016 424.54 463.928C423.804 462.84 423.436 461.624 423.436 460.28C423.436 458.552 423.868 457.192 424.732 456.2C425.628 455.208 427.084 454.504 429.1 454.088C431.148 453.672 433.932 453.464 437.452 453.464H439.612V456.008H437.5C434.908 456.008 432.86 456.136 431.356 456.392C429.884 456.616 428.844 457.016 428.236 457.592C427.66 458.168 427.372 458.984 427.372 460.04C427.372 461.352 427.82 462.424 428.716 463.256C429.644 464.088 430.892 464.504 432.46 464.504C433.74 464.504 434.86 464.2 435.82 463.592C436.812 462.984 437.58 462.152 438.124 461.096C438.7 460.04 438.988 458.824 438.988 457.448V451.976C438.988 449.992 438.588 448.568 437.788 447.704C436.988 446.808 435.676 446.36 433.852 446.36C432.732 446.36 431.612 446.504 430.492 446.792C429.372 447.08 428.188 447.544 426.94 448.184C426.492 448.408 426.108 448.488 425.788 448.424C425.468 448.328 425.212 448.152 425.02 447.896C424.828 447.64 424.716 447.352 424.684 447.032C424.652 446.68 424.716 446.344 424.876 446.024C425.068 445.704 425.356 445.448 425.74 445.256C427.148 444.552 428.54 444.04 429.916 443.72C431.292 443.4 432.604 443.24 433.852 443.24C435.868 443.24 437.532 443.576 438.844 444.248C440.156 444.888 441.132 445.88 441.772 447.224C442.412 448.536 442.732 450.232 442.732 452.312V465.32C442.732 465.96 442.572 466.456 442.252 466.808C441.964 467.16 441.532 467.336 440.956 467.336C440.348 467.336 439.884 467.16 439.564 466.808C439.244 466.456 439.084 465.96 439.084 465.32V461.576H439.516C439.26 462.792 438.764 463.832 438.028 464.696C437.324 465.56 436.444 466.232 435.388 466.712C434.332 467.192 433.148 467.432 431.836 467.432ZM451.865 467.336C451.225 467.336 450.745 467.16 450.425 466.808C450.105 466.456 449.945 465.96 449.945 465.32V445.304C449.945 444.664 450.105 444.184 450.425 443.864C450.745 443.512 451.209 443.336 451.817 443.336C452.425 443.336 452.889 443.512 453.209 443.864C453.561 444.184 453.737 444.664 453.737 445.304V449.432L453.209 448.856C453.881 447 454.969 445.608 456.473 444.68C458.009 443.72 459.769 443.24 461.753 443.24C463.609 443.24 465.145 443.576 466.361 444.248C467.609 444.92 468.537 445.944 469.145 447.32C469.753 448.664 470.057 450.376 470.057 452.456V465.32C470.057 465.96 469.881 466.456 469.529 466.808C469.209 467.16 468.745 467.336 468.137 467.336C467.497 467.336 467.001 467.16 466.649 466.808C466.329 466.456 466.169 465.96 466.169 465.32V452.696C466.169 450.52 465.737 448.936 464.873 447.944C464.041 446.92 462.697 446.408 460.841 446.408C458.697 446.408 456.985 447.08 455.705 448.424C454.457 449.736 453.833 451.496 453.833 453.704V465.32C453.833 466.664 453.177 467.336 451.865 467.336ZM479.146 467.24C478.506 467.24 478.026 467.064 477.706 466.712C477.386 466.328 477.226 465.8 477.226 465.128V445.496C477.226 444.824 477.386 444.312 477.706 443.96C478.026 443.608 478.506 443.432 479.146 443.432C479.754 443.432 480.234 443.608 480.586 443.96C480.938 444.312 481.114 444.824 481.114 445.496V465.128C481.114 465.8 480.938 466.328 480.586 466.712C480.266 467.064 479.786 467.24 479.146 467.24ZM479.146 438.056C478.346 438.056 477.722 437.848 477.274 437.432C476.826 436.984 476.602 436.392 476.602 435.656C476.602 434.888 476.826 434.312 477.274 433.928C477.722 433.512 478.346 433.304 479.146 433.304C479.978 433.304 480.602 433.512 481.018 433.928C481.466 434.312 481.69 434.888 481.69 435.656C481.69 436.392 481.466 436.984 481.018 437.432C480.602 437.848 479.978 438.056 479.146 438.056ZM488.814 467C488.398 467 488.062 466.904 487.806 466.712C487.55 466.52 487.374 466.264 487.278 465.944C487.182 465.624 487.182 465.272 487.278 464.888C487.374 464.504 487.582 464.136 487.902 463.784L501.438 445.688V446.696H488.622C488.11 446.696 487.71 446.568 487.422 446.312C487.166 446.024 487.038 445.64 487.038 445.16C487.038 444.68 487.166 444.312 487.422 444.056C487.71 443.8 488.11 443.672 488.622 443.672H503.358C503.838 443.672 504.222 443.768 504.51 443.96C504.83 444.152 505.038 444.408 505.134 444.728C505.23 445.016 505.23 445.352 505.134 445.736C505.07 446.088 504.894 446.44 504.606 446.792L490.83 465.08V463.976H504.318C505.374 463.976 505.902 464.472 505.902 465.464C505.902 465.944 505.758 466.328 505.47 466.616C505.214 466.872 504.83 467 504.318 467H488.814ZM517.945 467.432C516.345 467.432 514.905 467.128 513.625 466.52C512.377 465.88 511.385 465.016 510.649 463.928C509.913 462.84 509.545 461.624 509.545 460.28C509.545 458.552 509.977 457.192 510.841 456.2C511.737 455.208 513.193 454.504 515.209 454.088C517.257 453.672 520.041 453.464 523.561 453.464H525.721V456.008H523.609C521.017 456.008 518.969 456.136 517.465 456.392C515.993 456.616 514.953 457.016 514.345 457.592C513.769 458.168 513.481 458.984 513.481 460.04C513.481 461.352 513.929 462.424 514.825 463.256C515.753 464.088 517.001 464.504 518.569 464.504C519.849 464.504 520.969 464.2 521.929 463.592C522.921 462.984 523.689 462.152 524.233 461.096C524.809 460.04 525.097 458.824 525.097 457.448V451.976C525.097 449.992 524.697 448.568 523.897 447.704C523.097 446.808 521.785 446.36 519.961 446.36C518.841 446.36 517.721 446.504 516.601 446.792C515.481 447.08 514.297 447.544 513.049 448.184C512.601 448.408 512.217 448.488 511.897 448.424C511.577 448.328 511.321 448.152 511.129 447.896C510.937 447.64 510.825 447.352 510.793 447.032C510.761 446.68 510.825 446.344 510.985 446.024C511.177 445.704 511.465 445.448 511.849 445.256C513.257 444.552 514.649 444.04 516.025 443.72C517.401 443.4 518.713 443.24 519.961 443.24C521.977 443.24 523.641 443.576 524.953 444.248C526.265 444.888 527.241 445.88 527.881 447.224C528.521 448.536 528.841 450.232 528.841 452.312V465.32C528.841 465.96 528.681 466.456 528.361 466.808C528.073 467.16 527.641 467.336 527.065 467.336C526.457 467.336 525.993 467.16 525.673 466.808C525.353 466.456 525.193 465.96 525.193 465.32V461.576H525.625C525.369 462.792 524.873 463.832 524.137 464.696C523.433 465.56 522.553 466.232 521.497 466.712C520.441 467.192 519.257 467.432 517.945 467.432ZM521.593 440.312C521.369 440.632 521.097 440.824 520.777 440.888C520.457 440.92 520.153 440.872 519.865 440.744C519.577 440.584 519.369 440.36 519.241 440.072C519.113 439.784 519.145 439.448 519.337 439.064L523.369 431.24C523.593 430.792 523.881 430.504 524.233 430.376C524.585 430.248 524.937 430.232 525.289 430.328C525.673 430.392 525.993 430.552 526.249 430.808C526.505 431.064 526.649 431.368 526.681 431.72C526.745 432.072 526.649 432.44 526.393 432.824L521.593 440.312ZM537.926 467.192C537.126 467.192 536.486 466.952 536.006 466.472C535.526 465.96 535.286 465.32 535.286 464.552C535.286 463.784 535.526 463.16 536.006 462.68C536.486 462.168 537.126 461.912 537.926 461.912C538.726 461.912 539.35 462.168 539.798 462.68C540.278 463.16 540.518 463.784 540.518 464.552C540.518 465.32 540.278 465.96 539.798 466.472C539.35 466.952 538.726 467.192 537.926 467.192ZM561.847 467.336C561.207 467.336 560.711 467.16 560.359 466.808C560.039 466.424 559.879 465.912 559.879 465.272V434.888C559.879 434.216 560.039 433.704 560.359 433.352C560.711 433 561.207 432.824 561.847 432.824C562.487 432.824 562.967 433 563.287 433.352C563.639 433.704 563.815 434.216 563.815 434.888V465.272C563.815 465.912 563.655 466.424 563.335 466.808C563.015 467.16 562.519 467.336 561.847 467.336ZM573.599 467.336C572.959 467.336 572.479 467.16 572.159 466.808C571.839 466.456 571.679 465.96 571.679 465.32V445.304C571.679 444.664 571.839 444.184 572.159 443.864C572.479 443.512 572.943 443.336 573.551 443.336C574.159 443.336 574.623 443.512 574.943 443.864C575.295 444.184 575.471 444.664 575.471 445.304V449.432L574.943 448.856C575.615 447 576.703 445.608 578.207 444.68C579.743 443.72 581.503 443.24 583.487 443.24C585.343 443.24 586.879 443.576 588.095 444.248C589.343 444.92 590.271 445.944 590.879 447.32C591.487 448.664 591.791 450.376 591.791 452.456V465.32C591.791 465.96 591.615 466.456 591.263 466.808C590.943 467.16 590.479 467.336 589.871 467.336C589.231 467.336 588.735 467.16 588.383 466.808C588.063 466.456 587.903 465.96 587.903 465.32V452.696C587.903 450.52 587.471 448.936 586.607 447.944C585.775 446.92 584.431 446.408 582.575 446.408C580.431 446.408 578.719 447.08 577.439 448.424C576.191 449.736 575.567 451.496 575.567 453.704V465.32C575.567 466.664 574.911 467.336 573.599 467.336ZM607.414 467.336C606.87 467.336 606.39 467.192 605.974 466.904C605.558 466.584 605.206 466.104 604.918 465.464L596.614 446.072C596.39 445.592 596.31 445.144 596.374 444.728C596.438 444.312 596.63 443.976 596.95 443.72C597.27 443.464 597.718 443.336 598.294 443.336C598.806 443.336 599.206 443.448 599.494 443.672C599.782 443.896 600.038 444.296 600.262 444.872L608.134 464.12H606.838L614.854 444.872C615.078 444.296 615.334 443.896 615.622 443.672C615.91 443.448 616.326 443.336 616.87 443.336C617.382 443.336 617.766 443.464 618.022 443.72C618.31 443.976 618.47 444.312 618.502 444.728C618.566 445.112 618.502 445.544 618.31 446.024L609.91 465.464C609.686 466.104 609.35 466.584 608.902 466.904C608.486 467.192 607.99 467.336 607.414 467.336ZM625.349 467.24C624.709 467.24 624.229 467.064 623.909 466.712C623.589 466.328 623.429 465.8 623.429 465.128V445.496C623.429 444.824 623.589 444.312 623.909 443.96C624.229 443.608 624.709 443.432 625.349 443.432C625.957 443.432 626.437 443.608 626.789 443.96C627.141 444.312 627.317 444.824 627.317 445.496V465.128C627.317 465.8 627.141 466.328 626.789 466.712C626.469 467.064 625.989 467.24 625.349 467.24ZM625.349 438.056C624.549 438.056 623.925 437.848 623.477 437.432C623.029 436.984 622.805 436.392 622.805 435.656C622.805 434.888 623.029 434.312 623.477 433.928C623.925 433.512 624.549 433.304 625.349 433.304C626.181 433.304 626.805 433.512 627.221 433.928C627.669 434.312 627.893 434.888 627.893 435.656C627.893 436.392 627.669 436.984 627.221 437.432C626.805 437.848 626.181 438.056 625.349 438.056ZM643.946 467.432C642.122 467.432 640.586 467.112 639.338 466.472C638.122 465.8 637.21 464.84 636.602 463.592C635.994 462.312 635.69 460.76 635.69 458.936V446.696H632.474C631.93 446.696 631.514 446.568 631.226 446.312C630.938 446.024 630.793 445.64 630.793 445.16C630.793 444.68 630.938 444.312 631.226 444.056C631.514 443.8 631.93 443.672 632.474 443.672H635.69V438.152C635.69 437.512 635.866 437.032 636.218 436.712C636.57 436.36 637.05 436.184 637.658 436.184C638.266 436.184 638.73 436.36 639.05 436.712C639.402 437.032 639.578 437.512 639.578 438.152V443.672H645.626C646.17 443.672 646.586 443.8 646.874 444.056C647.162 444.312 647.306 444.68 647.306 445.16C647.306 445.64 647.162 446.024 646.874 446.312C646.586 446.568 646.17 446.696 645.626 446.696H639.578V458.552C639.578 460.376 639.962 461.768 640.73 462.728C641.498 463.656 642.746 464.12 644.474 464.12C645.082 464.12 645.594 464.056 646.01 463.928C646.458 463.8 646.826 463.736 647.114 463.736C647.402 463.704 647.642 463.8 647.834 464.024C648.026 464.248 648.122 464.632 648.122 465.176C648.122 465.56 648.042 465.912 647.882 466.232C647.754 466.552 647.514 466.776 647.162 466.904C646.778 467.032 646.266 467.144 645.626 467.24C645.018 467.368 644.458 467.432 643.946 467.432ZM658.711 467.432C657.111 467.432 655.671 467.128 654.391 466.52C653.143 465.88 652.151 465.016 651.415 463.928C650.679 462.84 650.311 461.624 650.311 460.28C650.311 458.552 650.743 457.192 651.607 456.2C652.503 455.208 653.959 454.504 655.975 454.088C658.023 453.672 660.807 453.464 664.327 453.464H666.487V456.008H664.375C661.783 456.008 659.735 456.136 658.231 456.392C656.759 456.616 655.719 457.016 655.111 457.592C654.535 458.168 654.247 458.984 654.247 460.04C654.247 461.352 654.695 462.424 655.591 463.256C656.519 464.088 657.767 464.504 659.335 464.504C660.615 464.504 661.735 464.2 662.695 463.592C663.687 462.984 664.455 462.152 664.999 461.096C665.575 460.04 665.863 458.824 665.863 457.448V451.976C665.863 449.992 665.463 448.568 664.663 447.704C663.863 446.808 662.551 446.36 660.727 446.36C659.607 446.36 658.487 446.504 657.367 446.792C656.247 447.08 655.063 447.544 653.815 448.184C653.367 448.408 652.983 448.488 652.663 448.424C652.343 448.328 652.087 448.152 651.895 447.896C651.703 447.64 651.591 447.352 651.559 447.032C651.527 446.68 651.591 446.344 651.751 446.024C651.943 445.704 652.231 445.448 652.615 445.256C654.023 444.552 655.415 444.04 656.791 443.72C658.167 443.4 659.479 443.24 660.727 443.24C662.743 443.24 664.407 443.576 665.719 444.248C667.031 444.888 668.007 445.88 668.647 447.224C669.287 448.536 669.607 450.232 669.607 452.312V465.32C669.607 465.96 669.447 466.456 669.127 466.808C668.839 467.16 668.407 467.336 667.831 467.336C667.223 467.336 666.759 467.16 666.439 466.808C666.119 466.456 665.959 465.96 665.959 465.32V461.576H666.391C666.135 462.792 665.639 463.832 664.903 464.696C664.199 465.56 663.319 466.232 662.263 466.712C661.207 467.192 660.023 467.432 658.711 467.432ZM662.359 440.312C662.135 440.632 661.863 440.824 661.543 440.888C661.223 440.92 660.919 440.872 660.631 440.744C660.343 440.584 660.135 440.36 660.007 440.072C659.879 439.784 659.911 439.448 660.103 439.064L664.135 431.24C664.359 430.792 664.647 430.504 664.999 430.376C665.351 430.248 665.703 430.232 666.055 430.328C666.439 430.392 666.759 430.552 667.015 430.808C667.271 431.064 667.415 431.368 667.447 431.72C667.511 432.072 667.415 432.44 667.159 432.824L662.359 440.312ZM678.692 467.192C677.892 467.192 677.252 466.952 676.772 466.472C676.292 465.96 676.052 465.32 676.052 464.552C676.052 463.784 676.292 463.16 676.772 462.68C677.252 462.168 677.892 461.912 678.692 461.912C679.492 461.912 680.116 462.168 680.564 462.68C681.044 463.16 681.284 463.784 681.284 464.552C681.284 465.32 681.044 465.96 680.564 466.472C680.116 466.952 679.492 467.192 678.692 467.192ZM702.613 467.336C701.973 467.336 701.477 467.16 701.125 466.808C700.805 466.424 700.645 465.912 700.645 465.272V434.888C700.645 434.216 700.805 433.704 701.125 433.352C701.477 433 701.973 432.824 702.613 432.824C703.253 432.824 703.733 433 704.053 433.352C704.405 433.704 704.581 434.216 704.581 434.888V465.272C704.581 465.912 704.421 466.424 704.101 466.808C703.781 467.16 703.285 467.336 702.613 467.336ZM714.365 467.336C713.725 467.336 713.245 467.16 712.925 466.808C712.605 466.456 712.445 465.96 712.445 465.32V445.304C712.445 444.664 712.605 444.184 712.925 443.864C713.245 443.512 713.709 443.336 714.317 443.336C714.925 443.336 715.389 443.512 715.709 443.864C716.061 444.184 716.237 444.664 716.237 445.304V449.432L715.709 448.856C716.381 447 717.469 445.608 718.973 444.68C720.509 443.72 722.269 443.24 724.253 443.24C726.109 443.24 727.645 443.576 728.861 444.248C730.109 444.92 731.037 445.944 731.645 447.32C732.253 448.664 732.557 450.376 732.557 452.456V465.32C732.557 465.96 732.381 466.456 732.029 466.808C731.709 467.16 731.245 467.336 730.637 467.336C729.997 467.336 729.501 467.16 729.149 466.808C728.829 466.456 728.669 465.96 728.669 465.32V452.696C728.669 450.52 728.237 448.936 727.373 447.944C726.541 446.92 725.197 446.408 723.341 446.408C721.197 446.408 719.485 447.08 718.205 448.424C716.957 449.736 716.333 451.496 716.333 453.704V465.32C716.333 466.664 715.677 467.336 714.365 467.336ZM747.598 467.432C746.158 467.432 744.702 467.256 743.23 466.904C741.79 466.552 740.446 465.944 739.198 465.08C738.878 464.856 738.654 464.6 738.526 464.312C738.398 463.992 738.35 463.688 738.382 463.4C738.446 463.08 738.574 462.808 738.766 462.584C738.99 462.36 739.246 462.232 739.534 462.2C739.854 462.136 740.206 462.2 740.59 462.392C741.838 463.16 743.038 463.704 744.19 464.024C745.374 464.312 746.542 464.456 747.694 464.456C749.518 464.456 750.894 464.12 751.822 463.448C752.75 462.776 753.214 461.864 753.214 460.712C753.214 459.816 752.91 459.112 752.302 458.6C751.694 458.056 750.734 457.64 749.422 457.352L745.054 456.392C743.038 455.976 741.534 455.256 740.542 454.232C739.582 453.208 739.102 451.88 739.102 450.248C739.102 448.808 739.47 447.576 740.206 446.552C740.974 445.496 742.046 444.68 743.422 444.104C744.798 443.528 746.398 443.24 748.222 443.24C749.63 443.24 750.958 443.432 752.206 443.816C753.486 444.168 754.638 444.744 755.662 445.544C755.982 445.768 756.19 446.04 756.286 446.36C756.414 446.648 756.43 446.952 756.334 447.272C756.27 447.56 756.126 447.816 755.902 448.04C755.678 448.232 755.406 448.344 755.086 448.376C754.766 448.408 754.43 448.312 754.078 448.088C753.118 447.448 752.142 446.984 751.15 446.696C750.158 446.376 749.182 446.216 748.222 446.216C746.43 446.216 745.07 446.568 744.142 447.272C743.214 447.976 742.75 448.904 742.75 450.056C742.75 450.952 743.038 451.688 743.614 452.264C744.19 452.84 745.086 453.256 746.302 453.512L750.67 454.424C752.75 454.872 754.302 455.592 755.326 456.584C756.382 457.544 756.91 458.856 756.91 460.52C756.91 462.632 756.062 464.312 754.366 465.56C752.67 466.808 750.414 467.432 747.598 467.432ZM772.724 467.432C770.388 467.432 768.372 466.92 766.676 465.896C764.98 464.872 763.668 463.448 762.74 461.624C761.844 459.768 761.396 457.624 761.396 455.192C761.396 453.336 761.652 451.672 762.164 450.2C762.676 448.728 763.428 447.48 764.42 446.456C765.412 445.4 766.596 444.6 767.972 444.056C769.38 443.512 770.964 443.24 772.724 443.24C773.876 443.24 775.076 443.416 776.324 443.768C777.572 444.12 778.708 444.728 779.732 445.592C780.052 445.816 780.26 446.088 780.356 446.408C780.452 446.728 780.452 447.048 780.356 447.368C780.26 447.656 780.1 447.912 779.876 448.136C779.652 448.328 779.364 448.44 779.012 448.472C778.692 448.504 778.356 448.392 778.004 448.136C777.172 447.496 776.324 447.048 775.46 446.792C774.596 446.536 773.764 446.408 772.964 446.408C771.716 446.408 770.628 446.616 769.7 447.032C768.772 447.416 767.988 447.976 767.348 448.712C766.708 449.448 766.212 450.36 765.86 451.448C765.54 452.536 765.38 453.8 765.38 455.24C765.38 458.024 766.036 460.232 767.348 461.864C768.66 463.464 770.532 464.264 772.964 464.264C773.764 464.264 774.58 464.136 775.412 463.88C776.276 463.624 777.14 463.176 778.004 462.536C778.356 462.28 778.692 462.168 779.012 462.2C779.332 462.232 779.604 462.36 779.828 462.584C780.052 462.776 780.196 463.032 780.26 463.352C780.356 463.672 780.356 463.992 780.26 464.312C780.164 464.6 779.956 464.856 779.636 465.08C778.612 465.912 777.492 466.52 776.276 466.904C775.06 467.256 773.876 467.432 772.724 467.432ZM787.022 467.336C786.382 467.336 785.886 467.16 785.534 466.808C785.214 466.456 785.054 465.96 785.054 465.32V445.304C785.054 444.664 785.214 444.184 785.534 443.864C785.854 443.512 786.318 443.336 786.926 443.336C787.534 443.336 787.998 443.512 788.318 443.864C788.67 444.184 788.846 444.664 788.846 445.304V449.192H788.366C788.878 447.304 789.854 445.848 791.294 444.824C792.734 443.8 794.51 443.256 796.622 443.192C797.102 443.16 797.486 443.272 797.774 443.528C798.062 443.752 798.222 444.152 798.254 444.728C798.286 445.272 798.158 445.704 797.87 446.024C797.582 446.344 797.134 446.536 796.526 446.6L795.758 446.696C793.582 446.888 791.902 447.592 790.718 448.808C789.566 449.992 788.99 451.624 788.99 453.704V465.32C788.99 465.96 788.814 466.456 788.462 466.808C788.142 467.16 787.662 467.336 787.022 467.336ZM804.177 467.24C803.537 467.24 803.057 467.064 802.737 466.712C802.417 466.328 802.257 465.8 802.257 465.128V445.496C802.257 444.824 802.417 444.312 802.737 443.96C803.057 443.608 803.537 443.432 804.177 443.432C804.785 443.432 805.265 443.608 805.617 443.96C805.969 444.312 806.145 444.824 806.145 445.496V465.128C806.145 465.8 805.969 466.328 805.617 466.712C805.297 467.064 804.817 467.24 804.177 467.24ZM804.177 438.056C803.377 438.056 802.753 437.848 802.305 437.432C801.857 436.984 801.633 436.392 801.633 435.656C801.633 434.888 801.857 434.312 802.305 433.928C802.753 433.512 803.377 433.304 804.177 433.304C805.009 433.304 805.633 433.512 806.049 433.928C806.497 434.312 806.721 434.888 806.721 435.656C806.721 436.392 806.497 436.984 806.049 437.432C805.633 437.848 805.009 438.056 804.177 438.056ZM825.222 467.432C823.11 467.432 821.286 466.888 819.75 465.8C818.246 464.712 817.238 463.256 816.726 461.432L817.254 460.904V465.32C817.254 465.96 817.078 466.456 816.726 466.808C816.406 467.16 815.942 467.336 815.334 467.336C814.694 467.336 814.214 467.16 813.894 466.808C813.574 466.456 813.414 465.96 813.414 465.32V434.792C813.414 434.152 813.574 433.672 813.894 433.352C814.214 433 814.694 432.824 815.334 432.824C815.942 432.824 816.422 433 816.774 433.352C817.126 433.672 817.302 434.152 817.302 434.792V449.096H816.726C817.27 447.304 818.294 445.88 819.798 444.824C821.302 443.768 823.11 443.24 825.222 443.24C827.334 443.24 829.158 443.736 830.694 444.728C832.23 445.688 833.414 447.08 834.246 448.904C835.11 450.696 835.542 452.84 835.542 455.336C835.542 457.8 835.11 459.944 834.246 461.768C833.414 463.56 832.214 464.952 830.646 465.944C829.11 466.936 827.302 467.432 825.222 467.432ZM824.406 464.312C825.878 464.312 827.142 463.96 828.198 463.256C829.286 462.552 830.118 461.528 830.694 460.184C831.302 458.84 831.606 457.224 831.606 455.336C831.606 452.424 830.95 450.2 829.638 448.664C828.358 447.128 826.614 446.36 824.406 446.36C822.966 446.36 821.702 446.712 820.614 447.416C819.526 448.088 818.678 449.096 818.07 450.44C817.494 451.752 817.206 453.384 817.206 455.336C817.206 458.216 817.862 460.44 819.174 462.008C820.486 463.544 822.23 464.312 824.406 464.312ZM843.318 467.24C842.678 467.24 842.198 467.064 841.878 466.712C841.558 466.328 841.398 465.8 841.398 465.128V445.496C841.398 444.824 841.558 444.312 841.878 443.96C842.198 443.608 842.678 443.432 843.318 443.432C843.926 443.432 844.406 443.608 844.758 443.96C845.11 444.312 845.286 444.824 845.286 445.496V465.128C845.286 465.8 845.11 466.328 844.758 466.712C844.438 467.064 843.958 467.24 843.318 467.24ZM844.902 440.312C844.678 440.632 844.406 440.824 844.086 440.888C843.766 440.92 843.462 440.872 843.174 440.744C842.886 440.584 842.678 440.36 842.55 440.072C842.422 439.784 842.454 439.448 842.646 439.064L846.678 431.24C846.902 430.792 847.19 430.504 847.542 430.376C847.894 430.248 848.246 430.232 848.598 430.328C848.982 430.392 849.302 430.552 849.558 430.808C849.814 431.064 849.958 431.368 849.99 431.72C850.054 432.072 849.958 432.44 849.702 432.824L844.902 440.312ZM854.426 467.192C853.626 467.192 852.986 466.952 852.506 466.472C852.026 465.96 851.786 465.32 851.786 464.552C851.786 463.784 852.026 463.16 852.506 462.68C852.986 462.168 853.626 461.912 854.426 461.912C855.226 461.912 855.85 462.168 856.298 462.68C856.778 463.16 857.018 463.784 857.018 464.552C857.018 465.32 856.778 465.96 856.298 466.472C855.85 466.952 855.226 467.192 854.426 467.192Z" fill="#FF8C42"/>
</g>
<defs>
<linearGradient id="paint0_linear_386_503" x1="600" y1="0" x2="600" y2="630" gradientUnits="userSpaceOnUse">
<stop stop-color="#131313"/>
<stop offset="0.504808" stop-color="#262525"/>
<stop offset="1" stop-color="#131313"/>
</linearGradient>
<clipPath id="clip0_386_503">
<rect width="1200" height="630" fill="white"/>
</clipPath>
</defs>
</svg>
